# xmcd
# 
# Track frame offsets:
#     150
#     30772
#     50854
#     80739
#     103993
#     124956
#     141651
#     156841
#     173526
#     195750
#     217893
#     264985
#     286607
# 
# Disc length: 4103
# 
# Revision: 2
# Processed by: cddbd v1.5.2PL0 Copyright (c) Steve Scherf et al.
# Submitted via: fre:ac v1.0.31
# 
DISCID=b210050d
DTITLE=Hot Tuna - Live At New Orleans House Berkeley, CA 09.69
DYEAR=2010
DGENRE=Blues
TTITLE0=Come Back Baby
TTITLE1=Keep on Truckin'
TTITLE2=Death Don't Have No Mercy
TTITLE3=Winin' Boy Blues
TTITLE4=Uncle Sam Blues
TTITLE5=Know You Rider
TTITLE6=Don't You Leave Me Here
TTITLE7=Never Happen No More
TTITLE8=How Long Blues
TTITLE9=True Religion
TTITLE10=Sea Child
TTITLE11=Candy Man
TTITLE12=Keep Your Lamps Trimmed and Burning
EXTD=
EXTT0=
EXTT1=
EXTT2=
EXTT3=
EXTT4=
EXTT5=
EXTT6=
EXTT7=
EXTT8=
EXTT9=
EXTT10=
EXTT11=
EXTT12=
PLAYORDER=
